<?xml version="1.0" encoding="UTF-8"?>
<svg id="Layer_2" data-name="Layer 2" xmlns="http://www.w3.org/2000/svg" viewBox="0 0 187.25 205.24">
  <defs>
    <style>
      .cls-1 {
        fill: #050505;
      }
    </style>
  </defs>
  <g id="Layer_1-2" data-name="Layer 1">
    <g>
      <path class="cls-1" d="M90.54,37.01c-.09.4-.05.82-.09,1.23-.14,1.46-.65,2.79-1.43,4.01-.27.42-.55.86-1.28.34-.71-.51-1.58.02-2.04.96-.5,1.02.29,2.17,1.13,2.8,1.39,1.04,2.95,1.67,4.18.4-.56-.65-2.8-.82-3.39-1.41-.21-.21-.86-.74-.39-1.52.26-.42,1.96.76,2.22.81.74.14,2.1-.77,1.78.93,0,0,1.47.38,3.21-.21,1.25,1.96,3.41,2.1,5.63,2.17,1.49.05,2.82-.33,4.2-.62,1.72-.36,2.07-.59,2.12-1.96.05-1.36-.24-2.2-1.94-2.88-.48.56.36,1.2.5,1.76.27,1.09-.53,1.88-1.36,2-1.8.25-4.33,1.27-5.85-.27-.59-.6-.8-2.23-1.55-1.56-.29.26-.73,1.18-1.32,1.14-.84-1.38-1.87-1.68-3.74-1.18-.61.22-1.12-.35-.8-.9.25-.78,1-1.99,1.35-2.73.49-1.06.29-2.15.3-3.24,0-.38-.16-.68-.55-.73-.48-.06-.79.23-.88.66"/>
      <path class="cls-1" d="M91.02,46.73s0,0-.01.01c0,0,0,0,0,0v-.02Z"/>
      <path class="cls-1" d="M100.66,25.75c.58.07.91-.24,1.37-.58.86-.65,1.29-1.48,2.09-2.15,1.64-1.39,3.76-1.81,5.69-2.63.9-.38,1.48-.39,2.05.12.63.56,1.2.45,2.23.62.59.1,1.76-.5,2.23-1.3.38-.65-.93-1.26-1.82-1.38-1.14-.15-2.86-1.59-5.2-.93-.92.74-1.62,1.13-2.41,1.41-2.74.97-4.61,2.76-6.53,4.49-.44.4-.54.9-.55,1.37,0,.49.18.89.85.97"/>
      <path class="cls-1" d="M77.22,19.49c1.35-.2,2.6.74,3.96.53.18-.03.56.27.84.42.74.39,1.37.85,1.95,1.34,1.2,1.04,2.89,1.71,4.31,2.59.25.16.61.24.82.32.66.12,1.16.05,1.17-.3,0-.43,1.09-.68.18-1.26-1.15-.72-2.01-1.6-3.22-2.3-2.26-1.31-5.1-2.13-6.84-3.89-.64-.65-1.6-.66-2.5-.28-.73.31-1.35.71-2.08,1.01-.61.26-.88.61-.47,1.08.4.46,1.05.86,1.89.73"/>
      <path class="cls-1" d="M104.03,52.56c.67-.02,1.72-.18,1.64-.8-.1-.82-.77-1.07-1.62-1.05-.89.01-1.76,0-2.6.37-1.32.57-2.75.77-4.19.57-2.36-.33-6.73-.21-9.04-.87-.38-.11-.82-.09-1.22-.07-.59.02-1.08.21-1.15.81-.07.55.96.38,1.44.5,2.42.61,6.15,1.25,8.74,1.11.96-.05,2.88-.05,2.88-.06.27,0,.55,0,.82,0,1.44,0,2.88-.47,4.31-.51"/>
      <path class="cls-1" d="M113.52,53.22c-.3-.45-.02-.71-.58-.52-.56.19-.69.66-.66,1.15.02.33.15.67.31.97.61,1.1.32,2.13-.21,3.12-.39.72-.85,1.38-1.44,1.97-.76.76-1.48,1.59-2.14,2.44-.52.67-1.02,1.1-.22,1.66.81.57,1.12.23,1.36-.26.7-1.43,1.71-2.63,2.62-3.9.78-1.09,1.25-2.28,1.22-3.65,0-1.02.36-2.04-.25-2.98"/>
      <path class="cls-1" d="M110.11,52.17c-1.93,2.54-3.67,4.39-5.59,6.65-.35.41-1.39.9-1.81,1.27-.35.31-.35.74-.06,1.11.33.42.73.28,1.09.05.51-.34.71-.51,1.14-1,1.4-1.57,2.88-3.07,4.29-4.63.79-.88,1.26-1.95.94-3.44"/>
      <path class="cls-1" d="M132.03,63.26c.27.26.64.4,1.03.46,1.58.23,5.35,1.6,6.73,2.34,3.83,2.07,9.56,2.11,12.49,4.96.39.38,4.22,4.16,6.59,4.93,1.04.34,6.05,3.89,6.75,4.25,1.33.68,2.77,1.88,4.13,2.5,2.44,1.11,4.64,3.57,5.78,6.32.58,1.41,1.31,3.02,2.06,4.39,1.82,3.32,3.14,6.89,3.47,10.69.26,3.01.18,6.07-.08,9.1-.09,1.02-.46,1.27-1.46,1.06-.5-.1-.81-.41-1.16-.77-1.52-1.55-3.11-3.03-4.64-4.57-.43-.43-.96-.72-1.34-1.26-1.79-2.53-4.16-4.53-6.45-6.54-2.19-1.91-4.02-3.52-6.52-5.13-.6-.39-2.01-4.62-3.49-5.21-.13-.05-1.2-.21-1.33-.24-.87-.23,1.47,3.2,2.05,4.22.63,1.1.45,1.69,1.4,2.46.8.65.74.74,1.75,1.42,2.54,1.71,5.12,3.4,7.28,5.61,1,1.02,1.97,2.09,2.88,3.2,1.66,2,3.62,3.71,5.19,5.8,1.13,1.5,1.68,1.71,3.31,2.88,1.63,1.18,1.59,1.58.79,3.4-.49,1.13-2.74,6.19-4.51,8.72-3.04,4.34-6.38,3.98-10.99,6.45-.9.48-8.27,2.21-8.27,2.21,0,0-7.19,1.94-9.2,2.28-1.39.23-13.75,1.19-16.45,1.01-3.74-.25-16.77,1.12-19.05.79-2.3-.33-23.17-.29-26.28-.67-5.44-.68-10.88-1.17-16.35-1.36-1.17-.04-2.34-.08-3.47-.29-3.7-.68-7.47-.76-11.2-1.18-4.28-.48-8.58-.82-12.82-1.54-4.11-.69-8.23-1.41-12.35-1.94-5.24-.67-10.34-1.91-15.37-3.47-2.54-.79-4.01-2.63-4.27-5.24-.12-1.16-.28-2.08-.97-2.94q-.04-.18,0,0c.73-1.5,2.05-4.97,3.01-6.28.45-.61,1.42-2.76,2.08-3.67,3.91-4.04,8.08-7.8,12.41-11.36,2.69-2.21,5.68-4.88,9.35-4.99.62-.02,1.16-.23,1.5-.89l3.89-4.95c.19-.78-1.35-.19-2.32.19-.97.39-3.09,3.7-3.09,3.7-.39.39-2.79.98-2.79.98-2.12.54-4.18,1.33-5.9,2.73-1.9,1.55-3.8,3.12-5.57,4.83-2.26,2.17-4.61,4.25-6.92,6.37-1.05,1.7-2.49,3.56-2.95,4.63-.74,1.37-2.69,4.47-2.74,4.69-.27,1.39-1.17,1.35-2.2,1.04h0c-.81-.18-1.42-1.16-1.64-1.82-.04-.35-.49-3.61-.92-4.26-.7-1.93-.36-3.91-.29-5.88-.11-.27.02-1.81.19-2.82.07-1,.14-1.99.21-2.99.06-2.39-.08-4.9.88-7.09.83-1.9,3.85-5.28,4.09-5.41,1.78-.98,2.98-2.6,4.38-4.01.28-.28.68-.45,1.02-.67.09-.1,6.33-4.36,7.11-4.74,1.89-.91,5.36-4.22,8.58-6.26,1.02-.65,2.66-2.22,3.81-2.8.95-.48,3.02-3.38,3.64-3.79,3.21-2.17,6.78-3.56,10.57-4.13,3.09-.47,8.02-1.26,12.07-1.22.31.05,1.09.05,1.57.29,0,0,1.95.52,1.89-.83-.1-2.4,2.51-7.28,3.38-8.91,1.16-2.17,2.03-4.51,3.13-6.71,1.47-2.95-1.24-4.25-2.09-4.76-1.91-1.3-5.12-4.22-6.06-6.35-.77-1.74.71-3.86,2.62-4.13.66-.09,1.43-.48,2.02.16.98,1.08,1.79,1.09,2.04-.36.08-.46-1.39-1.5-1.43-1.98-.1-1.46.45-2.37.96-3.75.2-.54,1.97-3.86,2.43-4.47,1.78-2.33,3.18-4.95,5.19-7.12,1.03-1.12,1.82-2.4,2.51-3.74.8-1.56,1.84-2.85,3.31-3.83,1.01-.67,2.08-1.28,3.12-1.89.94-.56,2.06-.97,3.26-1.1,1.91-.21,3.77-.12,5.69-.05,3.59.13,7.02.72,10.46,1.74,2.74.82,5.22,1.93,7.28,3.95,1.51,1.48,3.16,2.82,4.58,4.39,1.18,1.3,2.67,2.38,3.38,4.07,1.67,3.99,2.99,8.1,4.38,12.18.38,1.11,1.3,4.12,2.96,9.6.29.96,1.58,1.82.85,2.7-.63.77-.85,3.81-.86,4.52-.02,1.28-.42,2.49-.83,3.59-.74,1.95.07,3.4,1.19,4.96.95,1.33,2.31,2.33,2.64,3.96.32,1.6.94,2.81,2.12,4.14M125.76,32.41c.41-.67,3.11-.7,4.04.37.37.74.55,2.06.27,2.48-.44.66-1.52,2.08-2.18,2.9-.63-.72-2.62-4.95-2.13-5.75M186.71,117.3h0c-.19-1.16-1.77-3.79-2.68-3.84-.82-.04-1.25-5.85-1.21-7.57.09-3.61-2.46-10.92-2.54-11.11-.47-1.08-1.47-3.88-2.35-5.36-.4-.67-1.18-2.25-1.55-2.87-.86-1.46-2.61-2.72-3.75-3.93-2.4-2.56-10.03-6.62-11.44-7.21-1.02-.42-2.69-1.6-3.45-2.17-1.82-1.38-2.44-2.14-3.67-3.21-1.69-1.48-3.18-2.06-5.61-2.92-1.86-.66-3.74-1.05-5.51-1.9-2.21-1.07-10.1-4.54-10.18-4.5-1.36-1.25-3.25-4.81-3.54-6.04-.13-.55-3.44-3.21-2.66-5.51.35-1.05.71-2.08.82-3.2.29-2.96.49-5.96,2.97-8.12.34-.3.53-.79.77-1.21,1.32-2.29-.08-5.82-2.68-6.12-1.12-.13-2.46.44-3.32-.39-.68-.87-.63-1.26-.67-1.4-1.44-4.95-3.21-9.79-5.18-14.55-.57-1.39-5.12-4.64-5.64-5.18-.84-.9-1.65-1.83-2.48-2.75-1.49-1.65-3.13-3.01-5.32-3.68-2.01-.62-4.04-1.17-6.07-1.71-4.2-1.12-8.44-.98-12.78-.49-4.16.47-8.98,3.33-11.01,7.4-2.46,4.92-4.96,7.1-8.21,11.49-.96,1.29-3.1,6.61-3.17,8.3-.02.4-1.4.87-1.85.97-1.27.27-1.68.75-2.38,1.63-.58.73-1.35,1.45-1.41,2.62-.06,1.09.33,1.58.73,2.44.7,1.52,1.76,2.82,3.2,3.68.83.5,2.38,1.83,3.6,2.87.51.51,1.02.86,1.26,1.4-.71,3.84-4.52,12.21-6.74,15.44-.39.57-.77,1.46-.81,1.56-1.77-.09-6.12.16-7.28.17-4.47.03-8.85.67-12.89,2.77-1.02.53-1.99,1.2-3.06,1.59-1.72.63-4.66,3.24-4.73,3.42-.74,1.86-15.55,11.32-16.05,11.78-1.92,1.75-8.57,7.55-10.34,8.5-2.35,2.14-2.88,3.46-3.05,3.96-1.12,3.42-1.54,6.96-1.83,10.52.08,1.79.1,3.57-.19,5.35-.06.3-.11.8-.17,1.1-.24.79.91,7.57,1.13,8.64.1.49.6.89.91,1.34-.05.41-2.33,4.3-2.43,4.92-.24,1.48-.46,2.93.12,4.43.33.86,2.2,9.29,2.71,10.97.21.12,1.44,4.29,2.05,6.17,1.26,3.87,3.15,7.45,5.33,10.82,2.66,4.12,5.61,8.05,8.56,11.96,1.43,1.89,2.9,3.81,4.55,5.48,2.7,2.74,5.61,5.28,8.54,7.77,3.22,2.75,6.55,5.34,10.58,6.87,1.97.75,9.15,3.94,10.81,4.31,2.4.53,4.7.97,6.86,1.73,1.43.5,3.21,1.65,3.8,3.7.17.59.27,1.08.35,1.68.18,1.26.15,1.49,1.2,1.63,2.65.37,2.58.47,5.09.76,4.82.56,9.67.85,14.49,1.4,1.49.17,7.68.49,8.75.68,4.19.73,8.39.74,12.65.32,2.67-.26,12.92-1.65,13.33-1.63,1.52.07,2.47-.68,2.56-2.23.06-1.04,1.92-4.63,2.92-4.77,3.71-.53,5.2-1.06,8.92-1.54,4.4-.56,8.38-1.87,12.27-3.86,2.86-1.46,5.51-3.09,8.41-4.48,1.2-.57,7.05-5.21,8.85-6.87h0c2.04-1.45,2.84-2.32,4.02-3.73,4.07-4.88,7.18-10.41,10.56-15.76,1.37-2.16,2.55-4.42,3.16-6.92.84-3.48,1.61-6.98,2.76-10.38,1.15-3.41,1.65-6.95,2.11-10.52.41-3.16.21-6.33.59-9.49.22-1.8.09-3.69-.43-5.49"/>
      <path class="cls-1" d="M113.85,31.06c-.1.35-.43.78-.63.89-1.4.76-3.01,2.49-4.46,3.11-.99.42-2.32.47-3.33-.05-1.16-.6-2.44-.83-3.4-2.03-.47-.59-1.1-1.24-.84-2.07,1.02.17,3.08.09,4.91-.18-.25.42-.29.69.3,1.65.69.7,1.71.92,2.66.74,1.16-.47,1.56-.64,2.06-1.6.29-.56.61-1.68.18-2.01,1.12-.3,1.66-.77,2.07-1.13.43-.38,1.17-.44,1.76-.58.2.21.38.23.53.45-.51.85-1.49,1.69-1.8,2.81M105.26,27.28c1.2-.47,2.17-1.1,3.37-.94,1.2.16,2.13-.08,2.7.08.35.1,1.12-.08,1.87.02.13.09.84.4.97.49-.01,0-4.98,2.11-5.62,2.27-.64.16-3.05.47-3.69.31-.64-.16-2.2.19-2.2.19,0,0,1.39-1.96,2.6-2.43M116.61,26.3c-.84-.42-.79.4-1.49-.32-.8-.82-1.38-.73-2.4-.65-1.09.08-2.19.08-3.29-.01-2.74-.24-4.74-.12-6.51,2.32-.82,1.13-1.56,1.46-2.59,2.19-.72.51-1.27,2.39-1.08,3.48.1.57.47,1.08.78.82.92-.78,1.53.17,2.27.56,1.11.58,2.08,1.64,3.26,1.94,1.81.45,3.82-.46,5.39-1.54,1.07-.73,1.57-.88,2.55-1.64.48-.38.68-.77,1.08-1.33.71-.98.56-1.19.87-1.71.31-.53.5-.91.83-1.57.21-.41.34-.71.44-1.32.19-.55.11-1.1-.1-1.21"/>
      <path class="cls-1" d="M83.85,34.72c-1.3.11-2.16.3-3.42-.27-.87-.4-1.52-1.17-2.2-1.69-.89-.67-1.26-.77-2.25-1.02-.59-.15-1.25-1.59-1.17-2.43.07-.8-.04-1.55.38-2.43.97.56,3.68,1.6,5.15,2.19-.7,1.04-.66,1.7.12,2.96.81.92,1.72.68,2.67.5,1.08-.44,1.9-1.35,2.41-2.31.71-.07,2.38-.08,3.07-.09.24,0,.48.13.64.2.13-.01.91,1.19,1.07,1.26-1.29,2.35-3.79,3.03-6.46,3.12M78.88,24.45c.64-.32,2.79.87,3.43.95.64.08,2.09.81,2.65,1.21.3.22,1.73,1.47,1.73,1.48.37.47.48.61.8.87-.68-.03-2.42-.12-3.09.01-.8.16-2.17-.37-3.45-1.18-1.28-.81-4.67-1.89-4.67-1.89,0,0,1.96-1.14,2.6-1.46M90.02,29.62c-.47-.41-1.79-1.18-2.2-1.66-.64-.74-1.38-1.32-1.87-2.26-.24-.45-1.28-.84-1.68-.9-1.46-.22-2.26-.62-3.61-1.3-1.1-.56-2.18-.48-3.22.1-.82.46-1.45.68-2.09,1.54-.39.53-.76,1.02-1.34,1.2-.62.19-.76.67-.73,1.6.05,1.31.74,2.26.41,3.69-.16.69.46,1.13,1.03,1.01,1.05-.23,1.99.79,2.91,1.34,1.18.71,2,1.81,3.43,2.04.94.15,2.67-.01,3.23.04.81.08,2.35-.12,3.12-.52.92-.48,2.81-1.25,3.04-1.87.27-.73.77-.75,1.42-.92.68-.18-1.31-2.67-1.85-3.13"/>
      <path class="cls-1" d="M35.47,94.73s4.26,11.01,13.28,10.55c9.02-.46,18.03-2.06,21.54-3.9,3.51-1.83,4.51.69,1.5,2.06-3.01,1.38-22.37,3.93-24.63,3.7-2.25-.23-5.93-3.02-8.44-4.62-2.5-1.61-6.96-6.35-5.7-6.58,1.25-.23,1.7-2.36,2.45-1.22"/>
      <path class="cls-1" d="M78.74,61.27s6.5,4.24,9.16,4.91c2.65.66,7.49.86,8.45.96.96.1,2.44-1.12,1.48-1.22-.96-.1-1.19-.12-2.92-.3-1.73-.18-3.48-.16-5.37-.74-1.88-.58-3.38-.94-4.48-1.63-1.1-.7-5.45-2.86-5.45-2.86,0,0-2.1-.41-.87.89"/>
      <path class="cls-1" d="M116.29,102.28s18.17,8.19,23.39,6.43c5.22-1.75,15.27-7.02,16.05-8.19.77-1.17,3.09-4.48,3.09-4.48,0,0,1.55,1.95-.39,4.09-1.75,1.94-6.57,4.34-9.09,6.24-2.32,1.75-9.67,4.29-10.83,4.29-1.16,0-6.19.59-9.28-.97-3.09-1.56-10.83-3.7-12.37-4.87-1.55-1.17-4.25-4.09-.58-2.53"/>
      <path class="cls-1" d="M96.49,130.76c.49,0,1.29-.34,1.66.37.36.71.08.56-.68,1.25-.76.69-1.52.36-2.15.3-.63-.06-1.06-.08-1.54-.5-.56-.48-.55-1.05-.42-2,.13-1.02,1.17-1.02,1.34-1.53.16-.51-1.66-.27-1.91.2,0,0-1.78,1.19-.38,3.58.75,1.29,1.7,1.27,2.92,1.51,1.4.27,4.73-1.24,3.92-2.68-1.19-2.13-1.8-1.96-3.53-1.51-1.94.51-.36,1.17.26,1.04q.2-.04.5-.03"/>
    </g>
  </g>
</svg>