<?xml version="1.0" encoding="UTF-8"?>
<svg id="Layer_2" data-name="Layer 2" xmlns="http://www.w3.org/2000/svg" viewBox="0 0 373.31 67.49">
  <defs>
    <style>
      .cls-1 {
        fill: #e64f38;
      }

      .cls-2 {
        fill: #e64f39;
      }
    </style>
  </defs>
  <g id="Layer_1-2" data-name="Layer 1">
    <path class="cls-1" d="M178.93,66.3h-13.13l7.7-48.95c.17-10.62-12.28-6.53-13.48,1.25l-7.81,47.7h-13.13L149.62,1.17h12.56l-.68,5.27c4.36-5.39,11.1-7.67,17.83-5.8,6.99,1.94,8.51,8.23,7.74,14.85l-8.15,50.8Z"/>
    <path class="cls-1" d="M369.49,66.3h-13.35l3.41-22.59c-.89-10.17-12.67-5.15-13.54,2.35l-3.23,20.23h-13.35l6.45-38.07h12.33c.28,1.43-.57,3-.62,4.31-.01.38-.1.47.28.74,2.32-2.48,5.34-4.85,8.71-5.62,6.82-1.57,15,.45,16.47,8.33,1.24,6.66-2.37,21.74-3.53,29.09-.06.41-.03.82-.03,1.23Z"/>
    <path class="cls-2" d="M270.91,34.98c-13.28,11.31-36.88,4.42-34.02-15.78,1.93-13.57,15.13-21.41,28.04-18.61,16.61,3.6,17.79,24.32,5.97,34.39ZM257.41,11.32c-10.01,1.39-10.66,20.18,1.24,17.54,9.2-2.04,10.02-19.11-1.24-17.54Z"/>
    <path class="cls-1" d="M315.99,31.31c7.68,5.99,7.66,17.86,2.76,25.66-11.5,18.34-43.79,11.85-37.91-12.73,3.62-15.14,23-22.4,35.15-12.93ZM301.32,38.39c-10.01,1-11.68,18.93-.3,17.82,9.86-.96,11.54-18.94.3-17.82Z"/>
    <path class="cls-2" d="M58.53,49.79c-.51,7.26,7.39,10.79,12.95,6.64.59-.44,1.66-2.24,2.09-2.29l11.89.7c.16.14-.67,1.73-.83,2.03-4.48,8.47-13.52,11.07-22.57,10.33-20.08-1.65-20.95-27.71-5.64-36.85,6.89-4.11,18.17-4.36,24.72.55,5.81,4.36,7.12,11.6,5.87,18.52l-.3.38h-28.18ZM75.28,42.45c-.93-9.71-13.72-8.23-15.62,0h15.62Z"/>
    <path class="cls-2" d="M106.73,22.5c-.87,8.89,10.43,11.74,14.76,4.64l12.17.64c-3.73,9.47-12.91,13.02-22.53,12.39-19.78-1.29-22.47-25.42-7.87-35.98,7.27-5.26,19.51-5.88,26.6-.03,5.43,4.48,6.41,11.64,5.39,18.33h-28.52ZM123.48,15.39c-.8-9.81-13.75-8.34-15.84,0h15.84Z"/>
    <path class="cls-2" d="M222.8,39.67c-.49.29-1.55-.72-2.03-.97-2.99-1.53-6.83-3.35-10.24-2.41-1.46.4-3.31,2.01-2.18,3.54,1.3,1.75,7.05,2.59,9.33,3.38,5.54,1.92,9.39,5.26,8.75,11.72s-6.43,10.79-12.59,12.01c-8.03,1.58-17.43-.13-23.94-5.21-.31-.49,1.04-1.9,1.32-2.35,1.16-1.83,2.56-4.42,3.9-6.12.83-1.05,1.9.53,2.93,1.14,3.43,2.04,9.16,4.3,13.02,2.63,1.93-.84,2.38-3.01.49-4.21-3.96-2.52-11.51-2.24-14.87-6.54s-2.23-10.1,1.08-13.98c5.97-7,22.57-6.57,29.46-1.27.2.15.4.22.37.53l-4.79,8.12Z"/>
    <path class="cls-2" d="M37.66,31.25l-.02.82-5.07,7.6h-.36c-2.67-2.44-11.34-5.6-13.74-1.93-.89,1.36.01,2.44,1.27,3.07,5.8,2.88,16.03,2.29,16.83,11.38,1.38,15.7-19.33,17.28-29.87,13.29-1.1-.42-6.2-3-6.69-3.78-.28-.44,5.01-7.78,5.47-8.96.64-.14,2.22,1.38,2.96,1.81,2.89,1.68,7.22,3.35,10.59,3.02,4.38-.43,5.46-3.97,1.02-5.61-5.21-1.92-14.49-2.76-15.16-10.1-1.53-16.9,22.83-17.79,32.77-10.62Z"/>
  </g>
</svg>