<?xml version="1.0" encoding="UTF-8"?>
<svg id="Layer_2" data-name="Layer 2" xmlns="http://www.w3.org/2000/svg" viewBox="0 0 76.46 22.35">
  <g id="Layer_1-2" data-name="Layer 1">
    <g>
      <path d="M26.25,15.62c-.28,0-.65-.02-1.02-.03-.3,0-.6,0-.91-.01-.14,0-.27,0-.41-.01-.15,0-.26-.08-.34-.2-.04-.06-.07-.12-.09-.18-.04-.12-.07-.24-.08-.37-.02-.32-.03-.64,0-.97.03-.36.03-.72.02-1.08,0-.25-.02-.51-.01-.76,0-.18.02-.37.04-.55,0-.04.01-.08.01-.12.01-.42.02-.84-.01-1.26-.01-.17-.02-.33,0-.49.02-.1.02-.21.02-.32,0-.37,0-.74,0-1.11,0-.22.02-.45.03-.67,0-.11.01-.21.01-.32,0-.33,0-.66,0-1,0-.12.01-.23.02-.35,0-.12.08-.2.18-.24.06-.03.13-.05.2-.05.35,0,.7-.02,1.05.02.15.02.31.03.47.02.28,0,.57,0,.85,0,.19,0,.37,0,.56,0,.3-.01.61-.02.91,0,.45.04.89.12,1.31.29.16.06.32.14.47.23.45.26.76.63.97,1.1.12.26.21.52.26.81.04.24.04.49,0,.73-.03.22-.09.44-.15.65-.09.32-.37.7-.63.89-.08.06-.15.12-.23.18-.04.04-.04.12.01.16.06.04.13.09.2.12.27.14.47.34.63.59.08.13.15.27.18.43.06.3.11.59.16.89.03.15.02.29,0,.44-.03.28-.08.56-.15.83-.03.1-.06.21-.1.31-.2.54-.57.9-1.09,1.11-.14.06-.29.11-.44.15-.2.06-.4.09-.61.09-.35,0-.7.02-1.05.02-.38,0-.76.02-1.23.03ZM26.98,13.57c.23.01.52-.01.81-.05.21-.02.4-.1.54-.26.13-.15.21-.33.25-.52.02-.14.02-.29,0-.44-.06-.33-.22-.58-.53-.72-.17-.07-.34-.13-.53-.15-.3-.03-.6-.04-.9-.03-.15,0-.29.03-.44.05-.1.01-.18.06-.25.13-.06.06-.11.13-.15.22-.06.14-.1.29-.09.45.02.32.03.64.05.96,0,.02,0,.04,0,.06.01.07.06.12.12.16.09.05.18.07.28.09.26.05.52.04.85.04ZM26.8,7.46c-.15,0-.29,0-.44.02-.07,0-.14.02-.2.04-.17.06-.27.17-.31.35-.09.36-.02.72.06,1.07.02.1.09.17.19.21.06.02.13.04.2.05.19.02.39.04.58.05.17,0,.33.01.5.01.21,0,.41-.05.59-.14.23-.1.37-.28.42-.53.02-.13.02-.25,0-.38-.05-.26-.2-.44-.44-.55-.13-.06-.27-.1-.42-.13-.24-.05-.48-.06-.73-.07Z"/>
      <path d="M60.8,12.18c.45,0,.9,0,1.35.01.43,0,.86.05,1.27.17.35.1.68.23.99.43.67.43,1.07,1.04,1.23,1.81.1.48.09.97.02,1.46-.04.27-.1.54-.19.8-.08.24-.2.46-.35.67-.17.23-.36.44-.55.64-.1.11-.2.22-.29.33-.04.05-.08.11-.11.17-.09.17-.06.35.07.49.17.18.36.33.59.43.17.08.34.15.51.22.05.02.11.04.16.07.08.04.14.11.15.2.01.09.03.18.02.26-.03.52-.01,1.04-.07,1.55,0,.03,0,.06-.01.09,0,.06-.04.11-.08.15-.05.04-.11.08-.17.1-.25.09-.5.09-.75.05-.12-.02-.23-.06-.32-.14-.36-.29-.74-.58-1.07-.91-.07-.07-.13-.14-.2-.22-.13-.16-.29-.29-.47-.39-.19-.12-.37-.24-.55-.39-.22-.18-.48-.25-.77-.17-.17.05-.26.16-.3.32-.02.07-.02.15-.03.23,0,.26,0,.53,0,.79,0,.14.01.27.05.41.02.06.02.12.02.17,0,.06-.02.12-.05.17-.03.04-.06.07-.11.08-.12.03-.23.04-.35.03-.41-.04-.82-.01-1.23,0-.08,0-.16,0-.23,0-.08,0-.16-.01-.23-.03-.12-.02-.21-.12-.22-.24,0-.05,0-.1,0-.15,0-.08,0-.16,0-.23-.02-.5.01-.99.04-1.49.02-.28.01-.57.01-.85,0-.14-.02-.27-.03-.41,0-.12-.02-.23-.02-.35,0-.31,0-.62.03-.94.02-.18.02-.37,0-.56-.03-.42,0-.84,0-1.26.01-.39.03-.78.05-1.17,0-.15,0-.29,0-.44,0-.46-.02-.92-.02-1.38,0-.06,0-.12,0-.18.02-.22.14-.36.35-.41.12-.03.25-.04.38-.04.32.01.64.02.97.03.18,0,.35,0,.53,0h0ZM61.83,14.42c-.18-.01-.35,0-.52.03-.22.03-.35.16-.4.37,0,.04-.02.08-.02.12,0,.11-.02.21-.01.32.02.29,0,.58-.01.88,0,.15-.02.29-.01.44,0,.25.03.51.04.76,0,.09.03.17.06.26.03.1.1.16.2.2.03,0,.06.02.08.02.25.05.49.02.72-.07.23-.09.43-.22.61-.39.27-.25.48-.54.64-.86.16-.32.22-.66.17-1.02-.06-.5-.38-.85-.88-.97-.22-.05-.44-.06-.67-.07Z"/>
      <path d="M76.43,15.98c0,.66,0,1.33-.03,1.99-.02.48-.03.96-.08,1.43-.02.2-.03.41-.07.61-.04.2-.09.4-.17.59-.17.43-.44.78-.82,1.04-.3.21-.63.36-.97.47-.33.1-.66.16-1,.2-.46.05-.92.05-1.37.03-.55-.02-1.09-.08-1.62-.22-.22-.06-.43-.14-.63-.24-.54-.27-.92-.69-1.17-1.23-.13-.28-.21-.57-.25-.87-.04-.28-.07-.56-.1-.84-.03-.26-.03-.53,0-.79.03-.28.02-.57.01-.85,0-.19-.01-.37-.01-.56,0-.35,0-.7,0-1.05,0-.57-.01-1.13-.02-1.7,0-.42,0-.84,0-1.26,0-.1.01-.19.05-.29.06-.14.16-.22.3-.25.07-.01.14-.02.2-.01.14.02.27,0,.41,0,.36-.03.72-.01,1.08,0,.07,0,.14.01.2.03.13.03.22.13.24.26,0,.04,0,.08,0,.12,0,.1,0,.2-.02.29-.05.29-.05.58-.05.88,0,.41,0,.82,0,1.23,0,.2,0,.39,0,.59,0,.39,0,.78,0,1.17,0,.29,0,.59,0,.88,0,.46.02.92.13,1.37.02.1.05.21.08.31.05.16.13.3.25.42.22.22.48.36.79.41.28.04.56.06.85.01.38-.06.7-.23.98-.49.17-.17.27-.38.31-.62.03-.18.04-.37.05-.55.02-.54.01-1.07,0-1.61,0-.37,0-.74.03-1.11.03-.26.02-.53-.01-.79-.01-.12-.02-.23-.02-.35,0-.54,0-1.07,0-1.61,0-.14.02-.27.06-.4.02-.07.06-.14.1-.21.05-.08.14-.14.23-.16.09-.02.19-.05.29-.05.42,0,.84,0,1.26,0,.08,0,.16.02.23.05.15.06.24.16.27.32.02.13.03.25.04.38.02.33,0,.66-.01.99-.02.31-.02.62,0,.94,0,.18,0,.35,0,.53,0,.2,0,.39-.01.59,0,0,0,0,0,0Z"/>
      <path d="M54.88,22.26c-.25.01-.51.01-.76,0-.24-.02-.39-.16-.47-.38-.09-.26-.18-.52-.27-.77-.03-.07-.05-.15-.09-.22-.05-.09-.12-.15-.23-.17-.22-.04-.44-.07-.67-.06-.22,0-.45,0-.67,0-.24,0-.47.05-.7.07-.02,0-.04,0-.06.01-.36.07-.59.29-.68.64-.04.16-.08.32-.12.48-.02.08-.04.17-.08.25-.03.08-.09.13-.18.13-.13,0-.25,0-.38,0-.18-.01-.35,0-.53,0-.18,0-.35,0-.53,0-.09,0-.17-.02-.26-.03-.11-.01-.21-.06-.28-.15-.08-.1-.13-.22-.11-.35.01-.11.02-.21.05-.32.04-.17.07-.34.09-.52,0-.14.04-.27.07-.4.07-.29.11-.59.16-.89.04-.27.09-.54.18-.8.06-.17.1-.35.13-.54.12-.71.29-1.41.48-2.11.2-.76.38-1.53.54-2.31.05-.23.09-.46.13-.69.02-.1.04-.19.07-.28.06-.2.18-.37.34-.5.09-.07.2-.12.32-.12.11,0,.21-.02.32-.03.12,0,.23-.02.35-.02.47,0,.94,0,1.4,0,.14,0,.27,0,.41,0,.18,0,.35.01.52.05.16.04.29.12.37.26.1.16.17.33.22.51.09.37.21.73.32,1.09.08.26.14.53.18.8.02.12.05.23.08.34.04.12.08.24.13.36.07.17.11.35.13.54.05.48.16.94.26,1.41.1.45.19.9.29,1.34,0,.03,0,.06.02.09.1.35.18.7.25,1.05.07.34.15.68.23,1.03.03.13.06.27.09.4.03.13.04.27.01.41-.04.2-.19.35-.39.37-.06,0-.12,0-.18,0-.18,0-.35.01-.53.02ZM51.86,18.43c.18-.02.34-.03.51-.04.1,0,.19-.05.27-.1.07-.04.12-.1.14-.18.04-.14.05-.29.03-.44-.03-.22-.05-.45-.12-.66-.06-.2-.1-.4-.14-.6-.01-.08-.03-.15-.05-.23-.09-.28-.18-.56-.27-.83-.03-.09-.07-.18-.12-.27-.06-.1-.19-.15-.3-.11-.04.02-.09.04-.12.07-.14.12-.22.27-.27.44-.06.2-.1.4-.13.6-.07.4-.12.81-.23,1.21-.04.16-.05.33-.06.49,0,.11.02.21.06.31.02.07.06.12.12.16.09.07.18.12.29.13.14.02.27.03.39.04Z"/>
      <path d="M11.69,14.2c.01,1.05-.15,1.96-.46,2.84-.17.48-.43.92-.74,1.32-.21.27-.46.51-.75.69-.27.17-.56.27-.88.3-.08,0-.16.01-.23,0-.93-.09-1.67-.5-2.19-1.29-.07-.11-.14-.23-.2-.36-.29-.58-.49-1.19-.6-1.83-.13-.76-.17-1.53-.14-2.3.03-.68.15-1.34.36-1.98.13-.4.3-.78.53-1.14.17-.27.37-.52.61-.75.13-.13.29-.23.47-.29.22-.07.44-.15.66-.23.18-.07.36-.09.54-.09.29,0,.58.07.85.2.26.13.5.3.72.5.35.33.63.72.84,1.15.27.55.44,1.13.51,1.73.06.54.12,1.09.11,1.52Z"/>
      <path d="M.11,4.46c0-.34,0-.71-.01-1.08,0-.38-.02-.76-.01-1.14,0-.31-.03-.62-.06-.93C0,1.17,0,1.03,0,.9c0-.09.02-.17.04-.26.06-.19.18-.32.36-.39.08-.03.17-.06.25-.07.18-.03.37-.06.55-.07.4-.04.8-.05,1.2-.06.18,0,.35-.02.53-.03.92-.06,1.81.05,2.68.37.39.14.74.34,1.07.6.07.05.14.11.21.16.25.19.45.44.6.71.16.28.29.57.36.89.02.08.03.15.04.23.04.46.03.92-.01,1.37-.03.36-.11.71-.23,1.05-.1.29-.26.55-.45.78-.5.62-1.17.96-1.93,1.15-.4.06-.79.09-1.2.07-.05,0-.1,0-.15-.02-.28-.06-.56-.05-.85-.05-.12,0-.23.03-.34.07-.07.03-.14.07-.2.11-.12.08-.19.2-.21.34-.03.16-.04.33-.03.5.02.35.04.7.06,1.05,0,.11,0,.21-.01.32-.03.17-.18.3-.34.31-.04,0-.08,0-.12,0-.24,0-.49,0-.73-.04-.17-.03-.35-.02-.52,0-.12.02-.25.02-.38.02-.11,0-.18-.07-.19-.19-.01-.12-.03-.23-.03-.35,0-.67,0-1.35,0-2.02,0-.04,0-.08,0-.12.05-.39.03-.78.04-1.17,0-.18,0-.35,0-.53,0-.2.01-.39.02-.59,0-.2.02-.39.03-.62ZM2.4,3.41s0,0,0,0c0,.17-.02.33-.02.5,0,.27.04.53.12.78.1.31.3.52.62.6.13.03.27.04.4.06.33.05.66.01.99-.07.08-.02.17-.05.25-.08.14-.05.26-.13.36-.24.13-.13.25-.28.35-.43.25-.37.3-.78.19-1.2-.05-.21-.13-.41-.23-.6-.05-.11-.13-.2-.22-.27-.21-.18-.46-.3-.72-.37-.35-.09-.71-.14-1.07-.11-.18.01-.37.04-.54.1-.13.05-.24.13-.31.25-.07.11-.12.23-.13.35,0,.09-.01.18-.02.26,0,.16-.01.31-.02.47Z"/>
      <path d="M44.39,15.44c-.18,0-.35,0-.53,0-.09,0-.18,0-.26,0-.18.01-.29-.08-.35-.25-.04-.12-.08-.24-.08-.37,0-.33,0-.66,0-1,0-.05,0-.1,0-.15.04-.24.03-.49.04-.73,0-.35-.04-.7-.1-1.05-.04-.21-.11-.41-.2-.61-.01-.03-.03-.05-.04-.08-.41-.74-.74-1.53-1.12-2.29,0,0,0-.02-.01-.03-.28-.55-.54-1.1-.75-1.68-.07-.18-.16-.35-.25-.53-.1-.2-.21-.4-.31-.6-.04-.09-.09-.18-.12-.27-.11-.3.11-.47.33-.49.12-.01.23,0,.35,0,.26.01.53.03.79.04.18,0,.35.01.53-.02.09-.02.17-.01.26,0,.1.02.18.07.24.15.05.06.09.13.12.2.03.06.06.12.08.19.15.4.34.79.53,1.17.12.26.23.52.34.78.11.24.2.49.31.73.06.12.12.24.19.36.02.04.06.07.1.11.05.04.15.03.19-.01.08-.08.15-.18.2-.29.05-.11.09-.21.13-.32.12-.33.26-.65.4-.97.1-.21.19-.43.29-.64.18-.37.36-.74.54-1.1,0-.02.02-.03.03-.05.09-.17.24-.25.43-.26.14,0,.27,0,.41,0,.4,0,.8.01,1.2.02.1,0,.2,0,.29.02.13.02.23.14.23.27,0,.09,0,.18-.05.26-.03.07-.07.14-.11.21-.17.32-.34.63-.51.95-.11.2-.21.4-.29.61-.07.19-.18.37-.29.54-.12.2-.23.41-.34.61-.23.45-.43.92-.65,1.37-.09.18-.18.37-.29.54-.2.34-.35.7-.49,1.06-.04.09-.06.19-.08.28-.03.19-.06.39-.07.58-.02.37-.04.74-.02,1.11.01.24,0,.49.01.73,0,.21-.02.41-.04.61,0,.07-.03.13-.07.19-.03.04-.07.07-.12.08-.11.02-.21.02-.32.02-.23-.01-.47-.02-.7-.03,0,0,0,0,0,0Z"/>
      <path d="M15.52,17.28c0-.06,0-.12,0-.18-.04-.5,0-.99.03-1.49.02-.33.04-.66.01-.99-.02-.21-.02-.43,0-.64,0-.07,0-.14,0-.2,0-.56,0-1.11,0-1.67,0-.18-.06-.32-.16-.46-.11-.15-.25-.21-.42-.22-.07,0-.14,0-.2,0-.17,0-.33.01-.5.01-.08,0-.16,0-.23-.01-.12-.01-.19-.1-.22-.2-.02-.08-.03-.17-.04-.26,0-.12,0-.23,0-.35.01-.28.03-.57.04-.85,0-.09.03-.17.04-.26.01-.11.08-.18.16-.23.12-.07.25-.11.39-.11.15,0,.29,0,.44.01.18.02.37.03.56.03.48,0,.96,0,1.43,0,.66,0,1.33,0,1.99,0,.1,0,.2,0,.29,0,.12,0,.23.04.33.1.12.07.18.17.2.31,0,.06.01.12.01.18,0,.29,0,.59-.01.88,0,.16,0,.31-.01.47,0,.09-.02.17-.08.25-.04.05-.08.08-.15.09-.07,0-.14,0-.2,0-.14,0-.27,0-.41,0-.09,0-.18.01-.26.03-.16.03-.28.13-.38.26-.12.17-.19.36-.21.57,0,.11-.01.21-.01.32,0,.36,0,.72,0,1.08,0,.14,0,.27-.03.41-.04.2-.04.41-.04.61.01.75.02,1.5,0,2.26,0,.16,0,.31,0,.47.01.33.03.66.05.99,0,.14.01.27-.02.41-.04.15-.18.26-.31.27-.36.04-.72.06-1.08.05-.21,0-.43,0-.64,0-.14,0-.24-.07-.31-.19-.03-.06-.06-.12-.06-.19,0-.08,0-.16,0-.23,0-.29.01-.59.02-.88,0-.14,0-.27,0-.41h0Z"/>
      <path d="M33.88,10.61c-.01-.51.08-.95.27-1.36.22-.45.54-.81.96-1.08.12-.08.25-.14.4-.17.21-.04.42-.1.63-.15.03,0,.06-.01.09-.01.44-.05.88-.01,1.29.17.53.23.95.56,1.25,1.06.12.2.21.42.26.65.04.17.05.35.08.52,0,.07.01.14.02.2.06.61-.07,1.19-.39,1.71-.38.63-.92,1.05-1.65,1.21-.06.01-.11.02-.17.03-.58.05-1.13-.05-1.65-.29-.33-.15-.59-.37-.8-.67-.31-.43-.49-.91-.54-1.43-.02-.15-.02-.29-.03-.38Z"/>
    </g>
  </g>
</svg>