<?xml version="1.0" encoding="UTF-8"?>
<svg id="Layer_2" data-name="Layer 2" xmlns="http://www.w3.org/2000/svg" viewBox="0 0 442.08 129.51">
  <defs>
    <style>
      .cls-1 {
        fill: #c43228;
      }

      .cls-2 {
        fill: #c33228;
      }

      .cls-3 {
        fill: #c33128;
      }
    </style>
  </defs>
  <g id="Layer_1-2" data-name="Layer 1">
    <path class="cls-1" d="M138.56,31.83c11.63,1.59,30.53-3.53,37.41,8.81,2.7,4.85,2.86,10.73.2,15.66-1.11,2.07-3.01,3.06-4.14,4.94,3,1.68,4.85,3.33,5.92,6.71,3.2,10.07-.59,21.34-12.21,22.35-9.01.78-19.47-.41-28.56-.27-3.58-3.62-1.53-9.37-1.51-13.64.05-13.12-1.11-27.3-.02-40.42.18-2.21.37-3.88,2.92-4.15ZM152.2,43.44c-4.45.82-4.16,9.46.37,9.99,3.89.45,11.8.85,11.71-4.72-.08-5.26-8.17-5.99-12.09-5.27ZM153.23,66.19c-7.08.94-4.35,6.23-4.21,11.5,3.48,1.49,13.68,1.94,15.54-1.69,4.13-8.03-4.99-10.65-11.33-9.81Z"/>
    <path class="cls-1" d="M379.01,128.09c-5.1,3.02-8.82-.51-12.55-3.7-1.3-1.11-2.36-2.93-3.41-3.81-1.53-1.29-6.59-4.7-8.46-4.58-5.31.32-1.27,10.94-2.76,12.43s-4.37.18-6.33.2c-2.41.03-4.95,1.52-7.07-.46-.25-12.36-.5-24.79-.27-37.15.11-5.68.01-11.53.11-17.16.09-5.13,5.37-3.29,8.23-3.25,14.32.23,33.8-1.64,33.63,18.89-.09,10.11-4.46,11.25-8.83,17.98-3.31,5.09,7.56,6.43,8.23,8.39l-.51,12.21ZM354.21,83.83c-1.42.33-2.13,1.3-2.35,2.7-.34,2.14-.3,14.64.74,15.86,2.6,3.07,8.96-1.4,10.85-3.77,6.84-8.6,1.62-17.29-9.24-14.79Z"/>
    <path class="cls-1" d="M407.13,70.59c2.25,1.92.78,4.1.74,6.29-.16,8.77-.56,19.2,0,27.82s2.75,13.14,12.35,11.8c5.23-.73,7.01-4.47,7.39-9.28.81-10.36-.98-22.09-.04-32.37.61-6.7,8.57-4.03,13.32-3.8,2.07,3.07.83,6.77.82,9.87-.05,9.64,1.72,34.21-3.52,41.43s-18.85,7.77-26.96,6.76c-12.16-1.52-16.8-7.35-17.51-19.36-.57-9.64-.98-27.08.02-36.4.11-1.01.51-2.77,1.77-2.77h11.62Z"/>
    <path class="cls-1" d="M277.21,128.04c-.42-.4-.9-1.8-.89-2.45.05-3.32,1.69-10.59,2.41-14.2,2.55-12.71,6.54-25.21,9.02-37.95.96-1.25,2.1-2.56,3.75-2.82,3.13-.5,12.3-.36,15.65-.05,2.55.24,3.65,1.06,4.67,3.41,1.97,4.57,3.79,13.12,5.01,18.23,2.05,8.64,5.66,22.41,6.57,30.8.17,1.55.4,3.14-.11,4.66-.26.43-.63.77-1.11.91-.64.18-5.04.59-5.98.61-2.06.05-4.84-.18-6-2.07-.95-1.54-1.35-5.61-2.53-6.56-1.93-1.56-11.03-1.05-13.56-.36-4.54,1.24-3.14,7.68-5.25,8.39-1.24.42-10.81.25-11.66-.55ZM299.15,86.83c-.97.28-1.4,1.48-1.74,2.33-.74,1.89-2.88,12.73-2.64,14.47.59,4.23,9.33,3.41,10.33,1.31.95-1.98-2.6-16.9-4.28-17.95-.53-.35-1.09-.33-1.68-.17Z"/>
    <path class="cls-3" d="M47.65,53.04c5.09-.8,8.64.72,12.2,4.23,10.62,10.46,10.31,37.62,1.05,48.93-10.6,12.94-23.7,3.2-27.39-9.96-3.64-12.94-2.97-40.49,14.14-43.19Z"/>
    <path class="cls-1" d="M19.41,0c16.52.26,27.93,7.59,26.34,25.38-.94,10.47-9.01,17.61-19.45,17.94-3.23.1-8.98-1.65-11.62.49-3.41,2.77,1.11,12.81-2.26,14.41-2.04.97-5.2-.21-7.3-.27-1.63-.05-4.76,1.97-4.85-1.22-.15-15.84.27-31.69.05-47.52-.06-4.09-1.9-6.9,3.89-8.19C7.8.21,15.61-.05,19.41,0ZM18.87,11.64c-5.85.89-5.36,7.47-4.95,12.26.56,6.49,4.15,7.98,10.32,7.25,7.43-.88,11.09-8.43,7.48-14.95-2.13-3.84-8.82-5.17-12.85-4.56Z"/>
    <path class="cls-1" d="M247.66,31.83l9.51,20.61c1,.08,1.42-.32,1.95-1.08,1.32-1.88,3.15-8.07,4.4-10.75.71-1.52,3.86-8.27,4.78-8.86,1.44-.92,13.18-1.5,14.25,1.28.24,1.22-7.56,14.98-8.75,17.35-3.32,6.61-9.34,16.88-9.86,23.98-.21,2.96.69,12.92-.52,14.63-.23.33-.39.57-.8.71-1.37.46-11.51.33-12.32-.77-2.82-3.81,1.18-15.79-1.33-20.76l-16.23-34.83c-.21-1.19.6-1.92,1.7-2.13,1.65-.31,12.38-.21,13.24.62Z"/>
    <path class="cls-1" d="M103.21,110.37c-.97.97-10.57.98-12.15.52-.59-.17-1.09-.67-1.26-1.26-.98-3.35.75-9.43-.42-13.12.64-4.15.31-8.44.29-12.52-.02-3,.56-14.52-.45-16.21-1.57-2.62-7.89-.07-9.16-2.07-.96-1.51-.5-10.11.51-11.57,1.75-2.53,13.28-.77,16.43-.7s13.95-.6,15.71.45,1.48,7.78,1.24,9.89c-.55,4.75-4.28,1.8-7.46,3.15-1.41.6-2.29,2.6-2.53,4.03-1.1,6.59-.05,17.09-.1,24.14,0,1.32-.55,2.58-.57,4.01-.02,2.42,1.54,9.63-.08,11.25Z"/>
    <path class="cls-2" d="M208.77,45.47c23.35-2.92,23.26,34.06.89,32.19-18.07-1.51-18.78-29.95-.89-32.19Z"/>
  </g>
</svg>