<?xml version="1.0" encoding="UTF-8"?>
<svg id="Layer_2" data-name="Layer 2" xmlns="http://www.w3.org/2000/svg" viewBox="0 0 295.33 320.93">
  <defs>
    <style>
      .cls-1 {
        fill: #c53b2e;
      }

      .cls-2 {
        fill: #fffdfd;
      }

      .cls-3 {
        fill: #c63c2f;
      }

      .cls-4 {
        fill: #c63d30;
      }

      .cls-5 {
        fill: #faf1ee;
      }

      .cls-6 {
        fill: #c63b2e;
      }

      .cls-7 {
        fill: #c5392d;
      }

      .cls-8 {
        fill: #c33128;
      }

      .cls-9 {
        fill: #fbf3f2;
      }

      .cls-10 {
        fill: #faf0ee;
      }
    </style>
  </defs>
  <g id="Layer_1-2" data-name="Layer 1">
    <path class="cls-8" d="M197.14,47.11c3.07,1.97,6.53-.6,9.05,2.83,2.08,2.83,1.63,6.2-.31,8.95-.65.92-1.71,1.55-2.37,2.54-2.57,3.86-1.95,7.8-2.8,11.92-.71,3.49-2.42,3.78-.36,7.71.9,1.71,2.44,2.87,3.4,4.53,1.79,3.09,2.87,7.68,6.22,9.63,3.77,2.2,12.2,5.61,16.5,7.28s8.99,2.47,12.84,4.52c4.26,2.27,7.58,6.61,11.87,9.27,8.76,5.44,18.83,8.95,25.68,17.35,5.57,6.84,10.67,22.79,11.5,31.52.24,2.47-.2,10.41,1.52,12.07.35.34,1.06.34,1.39.68,2.23,2.24,3.65,6.37,3.9,9.5.74,9.41-1.49,25.03-3.9,34.25-2.4,9.23-4.85,20.03-9.55,28.19-3.78,6.56-8.7,14.32-13.21,20.38-10.6,14.23-34.51,29.69-51.86,33.44-6.35,1.37-12.91,1.88-19.23,3.41-1.07.52-2.84,3.46-3.31,4.61-.92,2.23-.59,4.88-3.1,5.96-11.4.9-23.1,3.69-34.57,3.2-3.09-.13-6.41-.91-9.42-1.14-11.71-.93-23.85-1.53-35.47-3.03-1.52-.2-8.17-1.04-9.01-1.56-.91-.56-1.06-4.41-1.68-5.86-2.56-5.92-12.91-6.29-18.39-8.03-27.91-8.86-45.75-27-62.01-50.47-7.49-10.81-11.98-19.95-15.65-32.66-1.33-4.6-4.51-15.44-4.8-19.74-.1-1.5.25-3.5.74-4.92.55-1.61,3.44-5.64,3.41-6.79-.02-.64-1.1-1.34-1.41-2.35-2.66-8.65-1.67-31.82,1.89-40.2.77-1.81,2.56-4.07,4.06-5.38,11.09-9.69,23.14-17.26,34.85-25.92,7.64-5.65,11.57-10.61,20.76-14.72,9.82-4.4,20.27-3.62,30.77-4.14,3.93-7.01,8.19-14.31,10.63-22.01.57-1.78,1.83-4.03.34-5.64-3.97-4.31-14.88-8.89-12.63-16.47.21-.7,2.47-3.58,3.09-4.08,1.38-1.11,4.53-1.3,5.21-2.33.46-.7,1.29-4.75,1.81-6.12,3.05-8.02,7.26-11.3,11.91-17.9,3.02-4.28,4.99-9.49,8.95-12.94,10.82-9.44,29.87-6.97,42.43-2.45,6.55,2.36,8.03,6.06,12.65,10.37,1.75,1.64,4.11,3.05,5.87,4.7,3.48,3.27,4.37,6.94,6.04,11.32,2.09,5.5,3.65,11.2,5.76,16.7ZM240.96,111.99c-6.8-5.47-10.15-4.63-17.71-7.39-2.15-.78-4.3-2.13-6.49-2.95s-7.65-1.84-8.98-3.09c-3.73-3.51-3.49-6.21-5.38-10.09-.89-1.81-3.18-3.63-4.31-5.5-3.06-5.04-.88-5.95-.01-10.75.23-1.29,1.65-9.87,1.54-10.38-.16-.76-1.03-1.55-1.36-2.44-3.92-10.63-6.33-22.78-11.08-33.08-2.17-4.7-13.1-15.28-17.68-17.8-7.55-4.15-27.02-7.41-35.02-4.82-8.42,2.73-10.18,7.28-14.65,13.66-4.23,6.04-13.91,16.53-15.16,23.71-.66,3.81,1,3.03,1.63,4.99,1.49,4.61-3.16.89-3.81.77-3.41-.62-7.26,2.51-6.51,6.14.43,2.06,3.94,5.79,5.57,7.26,3.34,3.03,9.51,4.92,7.63,10.26-2.59,7.32-8.15,14.59-10.09,21.99-.33,1.27.11,2.69-.73,3.8-.96.94-2.93.02-4.15-.02-9.99-.32-27.86,1.73-36.04,7.78-2.13,1.58-3.52,4.16-5.5,5.83-12.75,10.77-28.1,18.25-40.4,29.81-2.27,2.14-5.65,6.29-6.62,9.24-1.07,3.26-.5,5.85-.74,9.07-.7,9.43-1.87,17.02,1.32,26.24.59,1.69,1.96,2.67,3.77,2.66,2.23,0,1.71-1.37,2.53-2.79,6.19-10.62,9.97-15.34,19.18-23.47,4.08-3.6,9.23-8.64,14.25-10.66,2.28-.92,5.95-1.33,7.78-2.41,2.8-1.65,3.99-7.37,8.73-7.12l.39.75c-1.19,2.21-5.18,5.57-6.05,7.57-.42.97.97,3.12,1.55,4.1,2.44,4.18,7.24,9.12,11.87,10.78,6.68,2.39,25.65-.63,32.99-2.47,3.8-.96,7.22-2.71,10.99-3.7,3.21.53,1.16,3.28-.69,4.18-4.62,2.27-20.4,4.09-26.18,4.77-4.02.47-11.57,1.77-15.11.5-5.76-2.06-14.08-8.58-18.24-13.08-.96-1.03-1.87-3.51-3.39-3.06-4.52,1.35-11.71,7.76-15.48,10.97-8.8,7.5-15.15,12.85-20.32,23.46-.36.74-2.56,5.66-2.56,5.99,0,.5.92,1.73,1.11,2.52.77,3.11.46,5.79,3.09,8.23,3.15,2.92,17.35,5.75,22.07,6.62,26.57,4.89,53.32,7.09,80.21,9.24,5.7.46,11.73,1.59,17.35,1.9,23.33,1.27,48.49.72,71.74-.38,20.28-.96,40.65-4.04,59.31-12.4,7.07-3.17,9.26-7.05,12.64-13.78.76-1.51,3.82-7.94,3.71-9.09-.18-1.87-3.32-3.17-4.71-4.39-8.94-7.8-15.24-19.51-26.4-25.31-.46-.24-.77-.47-1.34-.35.04.6-.2,1.08-.51,1.57-3.19,4.99-22.58,15.04-28.65,16.65-9.63,2.56-13.9.39-22.45-2.65-4.39-1.56-17.59-4.99-18.97-9.72-.21-.98.96-.52,1.52-.39,4.06.96,9.55,3.98,13.75,5.5,6.51,2.35,17.63,6.34,24.37,5.11,3.78-.69,22.39-9.79,25.14-12.41.49-.47,3.8-5.37,3.78-5.72l-5.53-9.83c-.34-1.22,2.23-.17,2.6.04,2.42,1.38,3.35,5.8,5.11,7.72,2.88,3.16,9.76,7.34,13.42,10.73,2.86,2.65,5.02,5.76,7.55,8.31,2.05,2.06,7.23,7.49,9.24,8.87.82.56,2.68,1.23,3.53.7s.94-11.99.82-13.74c-.13-2.06-.59-4.49-1.03-6.52-1.2-5.58-8.42-21.94-12.37-25.75-.66-.64-1.79-1.42-2.57-1.95-9.61-6.53-19.64-11.17-28.82-18.55ZM201.2,59.67c.55.4,3.41-3.4,3.72-4.01,1.32-2.64,0-5.24-2.87-5.71-7.51-1.22-1.93,6.4-.85,9.72Z"/>
    <path class="cls-2" d="M240.96,111.99c9.18,7.38,19.21,12.02,28.82,18.55.79.53,1.91,1.32,2.57,1.95,3.95,3.82,11.17,20.17,12.37,25.75.44,2.03.9,4.46,1.03,6.52.11,1.74.05,13.2-.82,13.74s-2.71-.13-3.53-.7c-2.01-1.38-7.2-6.81-9.24-8.87-2.53-2.55-4.69-5.66-7.55-8.31-3.66-3.39-10.54-7.58-13.42-10.73-1.76-1.92-2.69-6.35-5.11-7.72-.37-.21-2.95-1.26-2.6-.04l5.53,9.83c.02.34-3.29,5.25-3.78,5.72-2.75,2.62-21.37,11.72-25.14,12.41-6.74,1.24-17.86-2.75-24.37-5.11-4.2-1.52-9.69-4.54-13.75-5.5-.56-.13-1.73-.59-1.52.39,1.38,4.73,14.58,8.16,18.97,9.72,8.56,3.04,12.83,5.21,22.45,2.65,6.07-1.61,25.46-11.66,28.65-16.65.31-.49.55-.97.51-1.57.57-.12.89.11,1.34.35,11.16,5.8,17.46,17.5,26.4,25.31,1.39,1.21,4.52,2.52,4.71,4.39.11,1.15-2.95,7.58-3.71,9.09-3.38,6.73-5.57,10.61-12.64,13.78-18.66,8.36-39.03,11.45-59.31,12.4-23.25,1.1-48.41,1.65-71.74.38-5.62-.31-11.65-1.44-17.35-1.9-26.89-2.15-53.64-4.35-80.21-9.24-4.71-.87-18.92-3.7-22.07-6.62-2.63-2.44-2.32-5.12-3.09-8.23-.2-.79-1.11-2.02-1.11-2.52,0-.33,2.19-5.24,2.56-5.99,5.17-10.61,11.52-15.96,20.32-23.46,3.77-3.21,10.96-9.61,15.48-10.97,1.52-.45,2.43,2.02,3.39,3.06,4.17,4.5,12.49,11.02,18.24,13.08,3.54,1.27,11.1-.03,15.11-.5,5.78-.68,21.56-2.5,26.18-4.77,1.84-.91,3.89-3.66.69-4.18-3.77.98-7.19,2.74-10.99,3.7-7.34,1.85-26.31,4.86-32.99,2.47-4.62-1.65-9.42-6.6-11.87-10.78-.57-.98-1.96-3.13-1.55-4.1.87-2.01,4.86-5.36,6.05-7.57l-.39-.75c-4.74-.25-5.93,5.47-8.73,7.12-1.83,1.08-5.5,1.49-7.78,2.41-5.02,2.02-10.17,7.06-14.25,10.66-9.21,8.13-12.99,12.85-19.18,23.47-.83,1.42-.3,2.78-2.53,2.79-1.81,0-3.18-.97-3.77-2.66-3.19-9.22-2.02-16.81-1.32-26.24.24-3.22-.33-5.82.74-9.07.97-2.94,4.34-7.1,6.62-9.24,12.29-11.56,27.64-19.04,40.4-29.81,1.97-1.67,3.36-4.25,5.5-5.83,8.17-6.04,26.05-8.1,36.04-7.78,1.22.04,3.19.96,4.15.02.83-1.11.39-2.53.73-3.8,1.94-7.39,7.5-14.67,10.09-21.99,1.89-5.33-4.28-7.22-7.63-10.26-1.63-1.48-5.14-5.2-5.57-7.26-.76-3.64,3.09-6.77,6.51-6.14.66.12,5.3,3.84,3.81-.77-.63-1.96-2.29-1.17-1.63-4.99,1.25-7.18,10.93-17.67,15.16-23.71,4.47-6.38,6.23-10.92,14.65-13.66s27.48.66,35.02,4.82c4.58,2.52,15.51,13.1,17.68,17.8,4.76,10.3,7.17,22.44,11.08,33.08.33.89,1.2,1.68,1.36,2.44.11.52-1.31,9.09-1.54,10.38-.87,4.8-3.04,5.71.01,10.75,1.13,1.87,3.43,3.69,4.31,5.5,1.9,3.88,1.65,6.58,5.38,10.09,1.33,1.25,6.72,2.25,8.98,3.09s4.34,2.16,6.49,2.95c7.56,2.76,10.9,1.91,17.71,7.39ZM143.02,36.31c-2.09-1.04-3.74-2.69-5.74-3.88-2.61-1.55-5.63-2.61-8.3-4.16-2.08-1.21-2.71-3.1-5.65-2.48-.44.09-4.77,2.14-4.83,2.41-.6,2.68,3.71,2.2,5.09,2.44,5.95,1.04,5.39,1.72,9.9,4.44,1.39.84,7.22,4.4,8.43,3.65.42-.26,1.38-1.93,1.1-2.42ZM172.77,27.29c-1.01.23-2.04,1.42-3.03,1.87-3.59,1.67-5.97,2.5-9.12,5.23-1.38,1.2-4.38,3.56-2.88,5.5.26.31.59.5.99.54,1.68.16,5.1-4.27,7-5.45,1.75-1.09,7.7-3.49,9.56-3.23,1.41.2,3.04,1.6,4.92,1.48.97-.06,3.5-1.54,3.19-2.74-.41-1.6-8.8-3.62-10.64-3.2ZM144.94,51.35c-.11-3.48-3.73-5.12-5.85-7.14-1.47-1.41-3.8-4.62-5.37-5.2-.98-.36-2.17-.32-3.11-.67-4.07-1.5-5.55-3.53-10.08-.64l-4.86,4.58.75,8.35c1.24.5,2.26.39,3.57.96,2,.86,4.65,3.87,6.44,4.51s8.35.49,10.23,0c1.05-.27,4.02-1.66,4.86-2.31,1.22-.94,1.44-2.59,3.4-2.45ZM184.16,41.22c-1.88.13-2.31-.77-3.45-1.27-.62-.27-9.27-.71-10.66-.69-5.18.06-6.13,2.5-9.25,5.51-.86.83-2.56,1.59-3.21,2.46-1.08,1.46-1.98,5.04-.36,6.4.53.12,1.11-.86,2.06-.6,1.84.51,4.71,3.81,7.06,4.29,3.55.73,10.96-2.89,13.32-5.49,1.19-1.3,5.37-9.19,4.48-10.61ZM144.95,57.03c-3.03-1.1-2.27,3.42-2.9,5.59-.17.59-1.82,4.01-2.07,4.16-.79.47-4.09-1.68-5.06,1.56s6.02,8.28,8.52,4.73c-1.93-1.61-6.32-.91-6.03-4.34,2.27.14,3.99,1.64,6.42,1.13v1.52s5.06-.32,5.06-.32c2.25,3.32,7.62,3.69,11.32,3.3,1.33-.14,6.68-1.25,7.2-2.24,1.25-2.37-.05-5.63-2.63-6.4-.32,2.55,2.34,4.58-1.32,5.84-4.18,1.45-8.97,2.06-10.83-2.84-1.69-.47-1.41,1.67-2.94,1.9-1.46-3.58-5.16-1.42-6.74-1.93-1.96-.63,2.01-5.36,2.01-6.19v-5.47ZM135.61,79.76c-.19.18-.19.66-.46.86l.63.49c7.36,1.79,14.98,2.44,22.57,1.95,1.57-.1,5.28-.5,6.72-.83,2.59-.58,1.8-2.65-.67-2.95-3.18-.39-5.32,1.32-8.3,1.53-2.4.17-6.9-.21-9.45-.39-2.09-.15-9.83-1.8-11.05-.66ZM173.63,81.94c-3.4,3.23-6.1,7.48-9.63,10.56-1.29,1.13-3.8,1.55-1.69,3.62.72.36,1.39-.39,1.89-.77,1.64-1.26,9.01-9.07,9.34-10.66.19-.91.07-1.83.08-2.74ZM177.99,82.32c-2.29.47.13,4.51.13,5.47,0,1.49-1.66,4.08-2.6,5.27-1.04,1.33-5.28,4.8-4.85,6.34.32,1.16,1.69,1.35,2.61.48.34-.32,3.99-5.74,4.44-6.5,1.4-2.37,2.82-7.82,1.28-10.2-.24-.37-.42-.98-1.01-.86ZM154.77,103.07c-6.36-.53-12.78-.88-18.75-3.33-2.01-.83-11.19-6.62-12.57-5.35-.04,1.51,1.76,2.21,2.9,2.95,7.47,4.8,16.48,8.49,25.61,7.64,1.2-.11,2.7-.39,2.81-1.9ZM149.48,200.83c-3.34-.51-5.02,1.42-4.5,4.69,1.15,7.29,16.34,3.15,10.18-2.26-1.4-1.23-2.57-1.07-4.26-.45s-2.21,1.54-.06,1.75c1.13.11,4.43-.89,3.88,1.28-.6,2.38-7.23,2.27-7.53-.67-.28-2.75.87-2.58,2.29-4.35Z"/>
    <path class="cls-5" d="M201.2,59.67c-1.08-3.33-6.66-10.94.85-9.72,2.87.47,4.19,3.06,2.87,5.71-.31.61-3.16,4.42-3.72,4.01Z"/>
    <path class="cls-7" d="M144.94,51.35c-1.96-.14-2.18,1.51-3.4,2.45-.84.65-3.81,2.03-4.86,2.31-1.89.49-8.49.62-10.23,0s-4.44-3.64-6.44-4.51c-1.32-.57-2.34-.46-3.57-.96l-.75-8.35,4.86-4.58c4.53-2.89,6.01-.87,10.08.64.94.35,2.13.3,3.11.67,1.58.58,3.91,3.79,5.37,5.2,2.11,2.03,5.74,3.67,5.85,7.14ZM137.78,45.32c-1.21-1.56-2.94-3.24-4.65-4.22-1.22-.7-7.23-3.01-8.35-2.94-1.06.07-3.65,1.72-4.36,2.63,2.59-.36,9.24,4.53,10.76,4.53h6.61ZM126.45,45.35l-8.29-3.04c.15,2.17-.73,3.85.3,5.93.91,1.84,2.23,1.44,3.73,2.3,1.81,1.03,3.5,3.25,5.38,3.68,4.3,1,12.55-.07,14.69-4.62-1.13-3.42-4.35-2.2-7.23-2.39-2.8,5.28-10.68,5.7-8.58-1.86Z"/>
    <path class="cls-7" d="M184.16,41.22c.89,1.42-3.29,9.31-4.48,10.61-2.36,2.59-9.77,6.22-13.32,5.49-2.35-.48-5.22-3.78-7.06-4.29-.95-.27-1.53.71-2.06.6-1.62-1.37-.72-4.94.36-6.4.64-.87,2.35-1.63,3.21-2.46,3.11-3,4.06-5.45,9.25-5.51,1.39-.02,10.03.41,10.66.69,1.14.5,1.57,1.4,3.45,1.27ZM161.94,46.45c3-.34,5.6.09,8.63-.62,1.07-.25,9.1-3.21,9.1-3.72-.55-.68-1.23-.86-2.06-.95-5.74-.66-12.43,0-15.67,5.29ZM167.22,48.34h-7.36c-1.9,0,1.43,3.75,1.9,4.14,2.99,2.46,7.05,3.76,10.63,1.97,3.9-1.96,7.33-5.73,9.5-9.37.23-.39.49-.77.43-1.26-2.6-.95-4.42,1.81-6.79,2.27,1.92,5.43-8.07,8.61-8.3,2.25Z"/>
    <path class="cls-1" d="M144.95,57.03v5.47c0,.82-3.97,5.56-2.01,6.19,1.59.51,5.28-1.65,6.74,1.93,1.52-.23,1.24-2.37,2.94-1.9,1.85,4.9,6.64,4.29,10.83,2.84,3.66-1.27,1-3.3,1.32-5.84,2.58.77,3.88,4.03,2.63,6.4-.52.99-5.86,2.09-7.2,2.24-3.7.4-9.07.03-11.32-3.3l-5.07.32v-1.52c-2.42.52-4.14-.99-6.41-1.13-.29,3.42,4.1,2.72,6.03,4.34-2.5,3.55-9.52-1.39-8.52-4.73s4.27-1.09,5.06-1.56c.25-.15,1.9-3.57,2.07-4.16.63-2.17-.13-6.69,2.9-5.59Z"/>
    <path class="cls-6" d="M135.61,79.76c1.22-1.13,8.95.51,11.05.66,2.55.19,7.05.56,9.45.39,2.97-.21,5.12-1.91,8.3-1.53,2.47.3,3.26,2.36.67,2.95-1.44.32-5.15.73-6.72.83-7.59.49-15.21-.16-22.57-1.95l-.63-.49c.27-.2.27-.68.46-.86Z"/>
    <path class="cls-1" d="M154.77,103.07c-.11,1.51-1.61,1.79-2.81,1.9-9.13.85-18.14-2.84-25.61-7.64-1.15-.74-2.94-1.44-2.9-2.95,1.39-1.27,10.56,4.52,12.57,5.35,5.97,2.45,12.39,2.8,18.75,3.33Z"/>
    <path class="cls-4" d="M149.48,200.83c-1.43,1.77-2.57,1.6-2.29,4.35.3,2.94,6.93,3.05,7.53.67.55-2.17-2.75-1.17-3.88-1.28-2.15-.21-1.58-1.14.06-1.75s2.85-.79,4.26.45c6.16,5.41-9.03,9.55-10.18,2.26-.52-3.28,1.16-5.2,4.5-4.69Z"/>
    <path class="cls-3" d="M177.99,82.32c.6-.12.78.49,1.01.86,1.54,2.39.12,7.83-1.28,10.2-.45.76-4.11,6.18-4.44,6.5-.92.88-2.28.69-2.61-.48-.43-1.55,3.81-5.02,4.85-6.34.94-1.2,2.6-3.78,2.6-5.27,0-.96-2.42-5-.13-5.47Z"/>
    <path class="cls-6" d="M173.63,81.94c-.01.91.11,1.84-.08,2.74-.33,1.59-7.71,9.4-9.34,10.66-.5.39-1.17,1.13-1.89.77-2.11-2.07.39-2.49,1.69-3.62,3.53-3.08,6.23-7.33,9.63-10.56Z"/>
    <path class="cls-9" d="M126.45,45.35c-2.1,7.56,5.78,7.13,8.58,1.86,2.88.19,6.1-1.03,7.23,2.39-2.15,4.55-10.39,5.62-14.69,4.62-1.88-.43-3.57-2.65-5.38-3.68-1.51-.86-2.82-.46-3.73-2.3-1.02-2.08-.14-3.75-.3-5.93l8.29,3.04Z"/>
    <path class="cls-10" d="M167.22,48.34c.23,6.35,10.22,3.17,8.3-2.25,2.37-.47,4.19-3.22,6.79-2.27.06.49-.2.87-.43,1.26-2.17,3.64-5.59,7.41-9.5,9.37-3.58,1.8-7.64.5-10.63-1.97-.47-.39-3.79-4.14-1.9-4.14h7.36Z"/>
  </g>
</svg>